<svg style="position: absolute; width: 0; height: 0;" width="0" height="0" version="1.1" xmlns="http://www.w3.org/2000/svg" xmlns:xlink="http://www.w3.org/1999/xlink">
<defs>
<symbol id="arrow-1" viewBox="0 0 15 32">
<path fill="#34495e" class="path1 fill-color1" d="M12.684 0.291l1.054-0.291c0.018 0.054 1.308 4.943 0.563 11.030-0.672 5.633-3.507 13.229-11.757 18.826-0.091 0.055-0.2 0.055-0.291 0s-0.127-0.164-0.127-0.254l1.072-2.798-2.471 4.434c0.854-0.382 2.271-1.563 5.942-3.125l-0.091 1.054c-4.525 1.545-6.178 2.817-6.196 2.817-0.091 0.036-0.218 0.018-0.291-0.055s-0.109-0.182-0.073-0.291l3.562-7.287c0.036-0.127 0.182-0.2 0.309-0.182 0.127 0.036 0.218 0.164 0.2 0.291l-1.363 4.634c7.923-5.233 10.376-12.702 11.030-18.099 0.727-5.997-1.072-10.667-1.072-10.703z"></path>
</symbol>
<symbol id="arrow-2" viewBox="0 0 21 32">
<path fill="#44b1e4" class="path1 fill-color3" d="M1.442 32c-0.105 0-0.211-0.053-0.299-0.141-0.105-0.123-0.123-0.299-0.035-0.44 0.035-0.053 3.27-3.886 5.556-11.358 0.651-2.163 0.844-2.092 1.213-1.952 0.387 0.141 0.387 0.141-0.369 2.233-0.369 1.037-0.879 2.444-1.389 3.833-0.598 1.635-1.213 3.27-1.6 4.343 18.251-12.694 16.229-16.141 16.035-16.475-0.352-0.615-1.952-0.738-4.765 0.387-1.248 0.51-12.308 4.87-13.802 2.444-0.615-0.985 0.527-2.497 3.253-5.116 4.097-3.938 4.73-6.154 4.325-6.963-0.791-1.565-4.448-1.846-9.565-0.738v0c1.407-1.213 3.165-1.934 5.029-2.040 3.182-0.158 4.448 0.932 5.222 2.444 0.897 1.776-0.932 4.114-4.818 7.56-3.393 3.024-2.919 4.255-2.796 4.466 0.668 1.073 6.435-0.158 12.87-2.76 2.971-1.196 5.046-1.213 5.714-0.053 1.389 2.497-4.202 8.879-16.738 18.145-0.141 0.105-0.862 0.176-0.985 0.088-0.141-0.105-0.193-0.281-0.123-0.44 0.193-0.51 0.387-1.055 0.598-1.618-0.686 1.336-1.266 2.374-1.653 3.059 1.758-0.598 5.486-1.758 9.002-1.952l0.035 0.756c-5.345 0-9.723 2.251-9.776 2.268s-0.088 0.018-0.141 0.018z"></path>
</symbol>
<symbol id="groups" viewBox="0 0 43 32">
<path class="path1" d="M32.352 0c3.072 0 5.536 2.464 5.536 5.536s-2.464 5.536-5.536 5.536c-3.040 0-5.536-2.464-5.536-5.536s2.464-5.536 5.536-5.536zM21.44 6.752c3.072 0 5.536 2.464 5.536 5.536 0 3.040-2.464 5.536-5.536 5.536s-5.536-2.464-5.536-5.536c0-3.072 2.496-5.536 5.536-5.536zM10.56 0c3.040 0 5.536 2.464 5.536 5.536s-2.464 5.536-5.536 5.536c-3.072 0-5.536-2.464-5.536-5.536s2.464-5.536 5.536-5.536zM4.352 24.48l-0.736-4.416v4.224c-1.44-0.448-2.688-1.024-3.616-1.728v-3.328c0-3.52 1.216-6.784 7.872-7.456 0.8 0.416 1.728 0.64 2.688 0.64s1.888-0.224 2.688-0.64c0.416 0.032 0.8 0.096 1.184 0.16 0 0.128 0 0.256 0 0.352 0 1.984 0.832 3.776 2.176 5.056-4.576 0.96-6.912 3.552-7.168 7.872-1.856-0.064-3.552-0.32-5.088-0.736zM31.744 29.504c-0.896 0.608-2.048 1.12-3.392 1.536v-4.224l-0.736 4.448c-1.824 0.48-3.936 0.768-6.176 0.768-2.272 0-4.384-0.288-6.208-0.768l-0.736-4.416v4.192c-1.472-0.448-2.688-1.024-3.616-1.728v-3.328c0-3.52 1.216-6.784 7.872-7.456 0.8 0.416 1.728 0.64 2.688 0.64s1.888-0.224 2.688-0.64c6.752 0.672 7.616 3.936 7.616 7.456v3.52zM42.912 22.56c-0.928 0.672-2.176 1.28-3.616 1.728v-4.224l-0.736 4.416c-1.6 0.416-3.392 0.672-5.312 0.736-0.128-3.232-1.248-6.72-6.912-7.904 1.312-1.28 2.144-3.072 2.144-5.056 0-0.128 0-0.256 0-0.352 0.384-0.064 0.768-0.096 1.184-0.16 0.8 0.416 1.728 0.64 2.688 0.64s1.888-0.224 2.688-0.64c6.656 0.672 7.872 3.936 7.872 7.456v3.36z"></path>
</symbol>
<symbol id="meetings" viewBox="0 0 35 32">
<path class="path1" d="M0.672 14.080h4.608c0.352 0 0.672-0.288 0.672-0.64s-0.288-0.64-0.672-0.64h-4.608c-0.384 0-0.672 0.288-0.672 0.64s0.288 0.64 0.672 0.64z"></path>
<path class="path2" d="M0.672 19.2h4.608c0.352 0 0.672-0.288 0.672-0.64s-0.288-0.64-0.672-0.64h-4.608c-0.384 0-0.672 0.288-0.672 0.64s0.288 0.64 0.672 0.64z"></path>
<path class="path3" d="M0.672 4.48h4.608c0.352 0 0.672-0.448 0.672-0.8s-0.352-0.8-0.704-0.8h-4.576c-0.384 0-0.672 0.448-0.672 0.8s0.288 0.8 0.672 0.8z"></path>
<path class="path4" d="M0.672 9.28h4.608c0.352 0 0.672-0.288 0.672-0.64s-0.288-0.64-0.672-0.64h-4.608c-0.384 0-0.672 0.288-0.672 0.64s0.288 0.64 0.672 0.64z"></path>
<path class="path5" d="M20 31.008v-3.52c0-2.656 1.792-4.352 3.072-5.632 0.288-0.288 0.736-0.704 0.96-0.96-0.192-0.256-0.64-0.672-0.96-0.96-1.28-1.248-3.072-2.976-3.072-5.632v-3.52c0-1.44 1.312-2.464 2.784-2.464h5.216v-7.104c0-0.736-0.576-1.216-1.312-1.216h-21.984c-0.736 0-1.344 0.48-1.344 1.216v1.344h1.632c0.192 0 0.448-0.224 0.736-0.224 0.672 0 1.216 0.576 1.216 1.248s-0.544 1.344-1.216 1.344c-0.288 0-0.544-0.128-0.736-0.128h-1.632v2.88h1.632c0.192-0.32 0.448-0.32 0.736-0.32 0.672 0 1.216 0.512 1.216 1.184s-0.544 1.248-1.216 1.248c-0.288 0-0.544-0.224-0.736-0.224h-1.632v2.88h1.632c0.192 0 0.448-0.256 0.736-0.256 0.672 0 1.216 0.544 1.216 1.216s-0.544 1.216-1.216 1.216c-0.288 0-0.544 0.064-0.736-0.256h-1.632v3.2h1.632c0.192-0.32 0.448-0.352 0.736-0.352 0.672 0 1.216 0.512 1.216 1.184s-0.544 1.28-1.216 1.28c-0.288 0-0.544-0.192-0.736-0.192h-1.632v2.88h1.632c0.192-0.32 0.448-0.288 0.736-0.288 0.672 0 1.216 0.512 1.216 1.216s-0.544 1.248-1.216 1.248c-0.288 0-0.544 0.096-0.736-0.224h-1.632v2.88h1.632c0.192 0 0.448-0.224 0.736-0.224 0.672 0 1.216 0.544 1.216 1.248s-0.544 1.344-1.216 1.344c-0.288 0-0.544-0.128-0.736-0.128h-1.632v1.152c0 0.736 0.64 1.408 1.344 1.408h15.488c-0.096-0.32-0.192-0.672-0.192-0.992z"></path>
<path class="path6" d="M0.672 24h4.608c0.352 0 0.672-0.288 0.672-0.64s-0.288-0.64-0.672-0.64h-4.608c-0.384 0-0.672 0.288-0.672 0.64s0.288 0.64 0.672 0.64z"></path>
<path class="path7" d="M5.92 28.32c0-0.352-0.288-0.8-0.672-0.8h-4.576c-0.384 0-0.672 0.448-0.672 0.8s0.288 0.8 0.672 0.8h4.608c0.32 0 0.64-0.448 0.64-0.8z"></path>
<path class="path8" d="M35.072 14.304c0-3.296 0-3.52 0-3.52 0-0.48-0.384-0.896-0.896-0.896h-11.392c-0.48 0-0.896 0.384-0.896 0.896 0 0 0 0.256 0 3.552s4.032 4.864 4.032 6.592-4.032 3.296-4.032 6.592c0 3.296 0 3.52 0 3.52 0 0.48 0.384 0.896 0.896 0.896h11.424c0.48 0 0.896-0.384 0.896-0.896 0 0 0-0.256 0-3.52s-4-4.672-4-6.592 3.968-3.296 3.968-6.624zM24.48 16.224c-0.512-0.64-0.832-1.216-0.832-1.888v-2.208h9.664v2.208c0 0.704-0.32 1.28-0.864 1.92h-7.968zM31.456 24.576c1.12 1.12 1.888 1.92 1.888 2.944v2.208h-0.512l-3.072-2.944c-0.192-0.192-0.448-0.352-0.704-0.416v-0.864h-1.088v0.864c-0.256 0.096-0.512 0.224-0.704 0.416l-3.040 2.912h-0.512v-2.176c0-1.184 0.992-2.144 1.984-3.104 0.992-0.992 2.048-2.016 2.048-3.456 0-0.032 0-0.032 0-0.064 0.096 0.032 0.16 0.064 0.256 0.096v0.768h1.088v-0.8c0.096-0.032 0.192-0.064 0.288-0.096 0 0.032 0 0.032 0 0.064-0.064 1.568 1.056 2.656 2.080 3.648z"></path>
<path class="path9" d="M27.936 23.968h1.088v0.896h-1.088v-0.896z"></path>
<path class="path10" d="M27.936 22.432h1.088v0.896h-1.088v-0.896z"></path>
</symbol>
<symbol id="phone" viewBox="0 0 32 32">
<path fill="#52b36e" class="path1 fill-color2" d="M16 0c-8.8 0-16 7.2-16 16s7.2 16 16 16c8.8 0 16-7.2 16-16s-7.2-16-16-16zM20.2 25.7c-1.4-0.1-10.2-2.2-14-12.8-0.7-2.2 0.2-5.7 2.8-6.5s3.9 2.8 4.3 5l-2.3 2.2c0 0-0.1 1.4 3 4.5s4.5 3 4.5 3l2.6-2.6c1.6 0.3 4.9 2.4 4.9 2.4-0.4 3.1-2.5 5.2-5.8 4.8z"></path>
</symbol>
<symbol id="system" viewBox="0 0 21 32">
<path class="path1" d="M5.44 11.936h8.16v0.96h-8.16v-0.96z"></path>
<path class="path2" d="M11.68 14.816l1.12 0.544 0.16 0.064h0.64v-0.928h-8.16v0.928h6.176z"></path>
<path class="path3" d="M11.456 17.312l0.032-0.288h-6.048v0.96h3.776l-0.224-0.48 1.248-0.096z"></path>
<path class="path4" d="M5.44 9.408h8.16v0.96h-8.16v-0.96z"></path>
<path class="path5" d="M1.6 1.6h10.976v5.088h4.928v8.864l0.416-0.192 1.12-0.544 0.064-8.96-5.728-5.856h-13.376v24.832h8.96l0.544-1.12 0.224-0.448h-8.128v-21.664zM13.504 2.432l3.2 3.296h-3.2v-3.296z"></path>
<path class="path6" d="M13.856 26.336l-1.184 0.576-1.152 2.784 2.752 2.304 0.864-3.84-0.48-0.672z"></path>
<path class="path7" d="M16.896 26.336l-0.8 1.152-0.448 0.672 0.864 3.84 2.752-2.304-1.152-2.784z"></path>
<path class="path8" d="M21.152 21.184l-1.632-1.12 0.864-1.792-1.312-0.096-0.672-0.064-0.16-1.984-0.768 0.352-1.024 0.48-1.12-1.6-1.12 1.632-1.792-0.864-0.064 0.896-0.064 0.96v0.128l-1.984 0.16 0.832 1.792-1.632 1.12 1.632 1.12-0.448 0.96-0.384 0.832 1.984 0.16 0.032 0.608 0.096 1.376 0.736-0.352 1.056-0.512 1.12 1.632 0.224-0.32 0.896-1.312 1.792 0.864 0.128-1.376 0.064-0.576 0.672-0.064 1.312-0.096-0.896-1.824 1.632-1.12zM12.416 21.504c-0.192-1.632 0.992-3.072 2.592-3.264 0.128 0 0.224-0.032 0.32-0.032 0.832 0 1.6 0.352 2.144 0.928 0.416 0.448 0.704 1.024 0.768 1.696 0.096 0.896-0.224 1.728-0.768 2.336-0.032 0.032-0.032 0.032-0.064 0.064-0.448 0.448-1.056 0.768-1.76 0.864-0.128 0-0.224 0.032-0.32 0.032-0.8 0-1.536-0.32-2.080-0.864-0.448-0.448-0.768-1.056-0.832-1.76z"></path>
</symbol>
<symbol id="techniques" viewBox="0 0 27 32">
<path class="path1" d="M13.547 0c-6.933 0-11.52 5.227-11.52 12.16 0 0.356 0.213 0.427 0.249 1.28 0.036 0.818-1.92 4.836-2.169 5.511-0.249 0.604-0.107 1.671 0.818 1.671 1.138-0.036 1.244 0.711 0.711 1.102-0.284 0.178 0 0.996 0.178 1.102s1.209 0.462 1.28 0.533c0.071 0.071-0.391 0.356-0.533 0.569-0.142 0.249 0.178 1.031 0.178 1.031s0.32 0.213 0.924 0.569c0.676 0.462 0.071 1.92 0.071 2.347s0.569 1.884 2.062 1.884c1.493 0 3.982-0.96 3.982-0.96l0.676 3.2c0.498-0.178 8.853-2.809 10.951-3.449 0.249-0.071 0.462-0.142 0.711-0.213l-0.569-4.338c1.458-2.418 4.978-6.222 5.333-9.92 1.28-9.422-5.333-14.080-13.333-14.080zM20.693 6.4c-0.036 0-0.036 0-0.071 0s-0.036 0-0.071 0c-0.071-0.249-0.142-0.604-0.142-0.96 0-0.32 0.071-0.569 0.142-0.747 0.071-0.107 0.107-0.178 0.213-0.213 0.107-0.071 0.213-0.107 0.356-0.142 0.036 0 0.284 0.071 0.391 0.107 0.924 0.498 1.636 1.173 2.062 2.027 0.036 0.036 0.036 0.107 0 0.178-0.036 0.107-0.178 0.284-0.604 0.462-0.284 0.107-0.569 0.356-0.818 0.747-0.284 0.427-0.569 0.747-0.853 0.924-0.249 0.142-0.462 0.249-0.676 0.249-0.178 0-0.32-0.036-0.498-0.142-0.071-0.036-0.213-0.178-0.284-0.32-0.107-0.178-0.142-0.391-0.142-0.569s0.071-0.462 0.213-0.604c0.391-0.391 0.747-0.462 0.924-0.533 0.142-0.036 0.284-0.071 0.249-0.213s-0.178-0.249-0.391-0.249zM17.493 2.916c0.071-0.036 0.178 0 0.249 0 0.676 0 1.316 0.249 1.92 0.782 0 0 0.356 0.284 0.142 0.924-0.071 0.284-0.142 0.569-0.142 0.853 0 0.32 0.036 0.711 0.142 1.102 0 0.036 0 0.036 0 0.071-0.711 0.249-0.996 0.96-1.102 1.28-0.036 0.071-0.036 0.107-0.071 0.142-0.071 0.142-0.142 0.213-0.213 0.284s-0.178 0.107-0.32 0.107c-0.178 0-0.32 0.036-0.498 0.071 0.036-0.071 0.107-0.178 0.142-0.249 0.178-0.356 0.284-0.711 0.284-1.067 0-0.213-0.036-0.427-0.107-0.604 0.036 0 0.107 0.036 0.142 0.036s0.071 0.036 0.107 0.036c0.178 0 0.32-0.107 0.356-0.249 0.036-0.107 0.036-0.178 0-0.284s-0.107-0.178-0.213-0.213c-2.24-0.462-2.027-2.596-0.818-3.022zM11.733 6.4c0.036 0 0.036 0 0.071 0s0.036 0 0.071 0c0.107 0 0.391 0.036 1.529 0.853 0.071 0.036 0.107 0.071 0.178 0.071 0.142 0 0.249-0.071 0.32-0.178 0.036-0.071 0.071-0.178 0.036-0.284s-0.107-0.178-0.178-0.249c-0.711-0.391-1.564-0.889-1.849-1.422-1.138-2.062 0.711-2.738 0.711-2.738 0.569-0.142 1.102-0.213 1.6-0.213 0.96 0 1.707 0.284 1.991 0.711 0.32 1.636-1.422 1.707-1.422 1.102 0.071-0.142 0.036-0.32-0.071-0.427-0.071-0.071-0.142-0.107-0.249-0.107s-0.213 0.036-0.284 0.107c-0.071 0.036-0.107 0.107-0.142 0.178s-0.036 0.142-0.036 0.213c0 0.107 0.036 0.178 0.071 0.284 0.071 0.142 0.142 0.249 0.284 0.391 0.178 0.178 0.427 0.391 0.747 0.604s0.711 0.427 1.138 0.604c0.356 0.178 0.604 0.356 0.782 0.604 0.178 0.213 0.249 0.427 0.249 0.711 0 0.213-0.071 0.462-0.213 0.747s-0.356 0.569-0.676 0.889c-0.213 0.213-0.427 0.356-0.711 0.462-0.213 0.071-0.498 0.142-0.747 0.142-0.498 0-0.924-0.142-1.244-0.249-0.178-0.071-0.32-0.107-0.391-0.178-0.036-0.036-0.142-0.071-0.142-0.071-0.036-0.036-0.107-0.036-0.178-0.036-0.036 0-0.107 0-0.142 0.036-0.107 0.036-0.213 0.142-0.213 0.249-0.071 0.249-0.142 0.462-0.249 0.64-0.142 0.213-0.32 0.356-0.569 0.462-0.213 0.071-0.462 0.142-0.747 0.142v0c-0.356 0-0.676-0.071-0.924-0.142-0.107-0.036-0.213-0.071-0.284-0.071l-0.071-0.036c-0.178-0.107-0.32-0.249-0.391-0.391s-0.107-0.249-0.107-0.391c0-0.249 0.107-0.498 0.32-0.676 0.213-0.213 0.533-0.32 0.676-0.356 0.107-0.036 0.213-0.036 0.284-0.071 0.036 0 0.071 0 0.071 0 0.142 0 0.213-0.071 0.284-0.142s0.107-0.178 0.071-0.249c0-0.213-0.178-0.356-0.391-0.356-0.036 0-0.178 0-0.391 0.036 0-0.249 0.036-0.498 0.142-0.676 0.107-0.213 0.249-0.356 0.462-0.462s0.462-0.107 0.604-0.107c0.178 0 0.284 0.036 0.32 0.036zM13.582 9.778c-0.071 0.036-0.142 0.071-0.249 0.107-0.071 0.036-0.178 0.071-0.249 0.107 0.071-0.107 0.107-0.213 0.142-0.356 0.071 0.071 0.178 0.107 0.356 0.142-0.036 0-0.036 0 0 0zM6.151 9.138c-0.284-0.32-0.604-0.782-0.604-1.316 0-0.391 0.213-0.782 0.604-1.138 0.142-0.071 0.462-0.178 0.924-0.178s0.96 0.107 1.493 0.284c0.036 0 0.071 0.036 0.142 0.036 0.142 0 0.284-0.107 0.356-0.249 0.036-0.107 0.036-0.178 0-0.284s-0.107-0.178-0.213-0.213c-0.64-0.213-1.244-0.356-1.778-0.356-0.142 0-0.284 0-0.427 0.036-0.036-0.32 0-0.747 0.284-1.102s0.782-0.569 1.458-0.604h0.036l0.036-0.036c0 0 0.604-0.853 1.884-0.853 0.107 0 0.213 0 0.32 0 0.178 0.178 0.533 0.533 0.213 1.316-0.071 0.142-0.178 0.284-0.391 0.427s-0.462 0.213-0.711 0.213c-0.213 0-0.427-0.036-0.533-0.071-0.071-0.036-0.142-0.036-0.178-0.071h-0.036c-0.071-0.036-0.142-0.036-0.178-0.036-0.142 0-0.284 0.071-0.32 0.178-0.036 0.071-0.071 0.178-0.036 0.284s0.107 0.178 0.178 0.213c0.178 0.071 0.569 0.249 1.102 0.249 0.32 0 0.747-0.071 1.173-0.391 0.036 0 0.036-0.036 0.071-0.036 0.071 0 0.107 0.036 0.107 0.071s-0.036 0.071-0.178 0.142c-0.32 0.107-0.676 0.249-0.96 0.569-0.284 0.356-0.427 0.818-0.427 1.387 0 0.071 0 0.142 0 0.213-0.178 0.107-0.32 0.213-0.462 0.32-0.32 0.32-0.498 0.711-0.533 1.138-0.569-0.284-1.067-0.427-1.529-0.427-0.284 0-0.533 0.036-0.782 0.142-0.071 0.107-0.107 0.142-0.107 0.142zM9.316 11.698v0c-0.711 0-2.027-0.249-2.667-1.707-0.036-0.071-0.036-0.142 0-0.178 0.071-0.107 0.249-0.142 0.356-0.142 0.427 0 0.96 0.178 1.564 0.533 0.036 0 0.107 0.071 0.213 0.142 0.178 0.142 0.462 0.356 0.64 0.462l0.036 0.036c0 0 0.213 0.071 0.498 0.178 0.249 0.071 0.533 0.107 0.924 0.142-0.462 0.036-0.818 0.142-1.067 0.391-0.071 0.107-0.356 0.142-0.498 0.142zM16.96 17.849l-1.956-2.062c0.142-0.036 0.249-0.036 0.391-0.071 0.391-0.107 0.711-0.249 0.996-0.462 0.178 0.249 0.462 0.604 0.818 1.031 0.284 0.32 0.604 0.711 0.604 0.711 0 0.036 0.284 0.498 0.498 0.889h-1.351zM21.796 14.649c-0.213 0.427-2.169 1.351-2.169 1.351s-2.027-0.391-2.169-0.533c-0.32-0.391-0.356-0.64-0.356-0.782s0.071-0.178 0.107-0.213c0.32-0.249 0.676-0.498 1.031-0.676 0.462-0.249 1.173-0.533 1.884-0.533 0.284 0 0.569 0.036 0.782 0.142 0.178 0.071 0.32 0.178 0.462 0.32 0.107 0.107 0.213 0.178 0.32 0.213s0.284 0.391 0.107 0.711zM24.853 9.813c0 0.107-0.071 0.142-0.178 0.142-0.071 0-0.142-0.036-0.249-0.071-0.64-0.249-1.209-0.391-1.707-0.391-0.356 0-0.676 0.071-0.924 0.213-0.32 0.142-0.533 0.427-0.711 0.747-0.178 0.356-0.249 0.64-0.249 0.889 0 0.178 0.036 0.32 0.107 0.462 0.036 0.107 0.107 0.178 0.213 0.249s0.249 0.142 0.391 0.178c0.107 0.036 0.213 0.036 0.356 0.036s0.284 0 0.391-0.036c0.107-0.036 0.213-0.107 0.249-0.178s0.071-0.178 0.036-0.284c-0.036-0.178-0.213-0.284-0.356-0.284-0.036 0-0.071 0-0.107 0 0 0-0.107 0.036-0.213 0.036-0.036 0-0.107 0-0.142 0-0.071 0-0.107-0.036-0.107-0.036-0.036-0.036-0.036-0.071-0.036-0.107 0-0.071 0-0.249 0.178-0.604 0.071-0.178 0.213-0.284 0.356-0.391 0.142-0.071 0.32-0.107 0.569-0.107 0.569 0 1.351 0.213 1.671 0.853 0 0.036 0.462 1.422-0.711 2.133-0.107 0.071-0.391 0.178-0.64 0.178-0.071 0-0.142 0-0.178-0.036-0.071-0.036-0.107-0.036-0.178-0.071-0.142-0.036-0.284-0.107-0.462-0.178l-0.071-0.036c-0.249-0.107-0.533-0.249-0.96-0.427-0.32-0.142-0.711-0.213-1.067-0.213-0.711 0-1.493 0.213-2.276 0.64 0 0-0.036 0-0.036 0-0.071 0-0.213-0.036-0.32-0.178-0.071-0.107-0.107-0.213-0.107-0.391 0.498-0.036 0.924-0.107 1.28-0.249s0.604-0.32 0.818-0.533c0.249-0.284 0.356-0.64 0.356-1.031 0-0.213-0.178-0.356-0.391-0.356s-0.391 0.178-0.391 0.356c0 0.213-0.071 0.391-0.178 0.533-0.142 0.178-0.462 0.32-0.853 0.427-0.178 0.036-0.356 0.071-0.533 0.071-0.533 0-0.996-0.178-1.28-0.32-0.071-0.036-0.142-0.071-0.213-0.071-0.036 0-0.071-0.036-0.142-0.036-0.142 0-0.32 0.107-0.356 0.249-0.036 0.107-0.036 0.178 0 0.284s0.107 0.178 0.213 0.213c0.391 0.142 0.676 0.32 0.853 0.498 0.142 0.142 0.178 0.32 0.178 0.498 0 0.249-0.107 0.533-0.32 0.853-0.107 0.142-0.178 0.249-0.213 0.284s-0.071 0.071-0.071 0.071v0l-0.036 0.036c-0.284 0.32-0.64 0.498-0.996 0.569-0.213 0.036-0.427 0.071-0.604 0.071 0 0 0 0 0 0-0.604 0-1.067-0.178-1.422-0.32l-0.178-0.071-0.036 0.036c0 0-0.178 0.107-0.533 0.107-0.427 0-0.924-0.107-1.458-0.356-0.427-0.178-0.711-0.533-0.889-1.031-0.107-0.284-0.107-1.067 0.249-1.209 0.036-0.036 0.107-0.036 0.142-0.071 0.178-0.107 0.391-0.178 0.64-0.178 0.036 0 0.036 0 0.071 0 0.569 0.036 0.924 0.249 1.173 0.427 0.036 0.036 0.107 0.071 0.142 0.107 0.533 0.32 1.067 0.498 1.636 0.498 0.178 0 0.356 0 0.533-0.036 0.107-0.036 0.178-0.071 0.249-0.178 0.036-0.071 0.071-0.178 0.036-0.284-0.036-0.178-0.178-0.284-0.391-0.284-0.036 0-0.036 0-0.071 0-0.142 0.036-0.249 0.036-0.391 0.036-0.533 0-0.96-0.213-1.244-0.356-0.036-0.036-0.32-0.213-0.32-0.427 0-0.142 0.071-0.284 0.249-0.427 0.249-0.213 0.533-0.356 0.853-0.462 0.32-0.142 0.604-0.213 0.818-0.213 0.071 0 0.107 0 0.142 0 0.462 0.071 0.64 0.107 0.747 0.142 0.036 0 0.107 0.036 0.107 0.036 0.036 0 0.071 0.036 0.107 0.036s0.071 0 0.107 0 0.142 0 0.284-0.036h0.107c0.107 0 0.249-0.071 0.356-0.107 0.178-0.107 0.32-0.213 0.498-0.356 0.071-0.071 0.142-0.107 0.178-0.178 0.142-0.142 0.32-0.284 0.462-0.391 0.107-0.071 0.213-0.142 0.32-0.178s0.213-0.071 0.284-0.071v0c0.32 0 0.604-0.107 0.818-0.284 0.036-0.036 0.071-0.071 0.107-0.107 0.036 0.071 0.036 0.107 0.071 0.178 0.178 0.284 0.356 0.498 0.604 0.64 0.284 0.142 0.569 0.213 0.853 0.213 0.391 0 0.782-0.142 1.138-0.356 0.391-0.249 0.747-0.64 1.067-1.138 0.178-0.284 0.356-0.427 0.498-0.498 0.107-0.036 0.213-0.036 0.32-0.036 0.427 0 0.676 0.32 0.818 0.604 0.249 0.284 0.533 0.818 0.498 1.422z"></path>
</symbol>
<symbol id="tools" viewBox="0 0 36 32">
<path class="path1" d="M19.3 22.529l3.121 0.43c0.287-1.471 0.323-3.013 0-4.52l-3.121 0.43-1.004-2.511 2.511-1.901c-0.861-1.291-1.937-2.368-3.193-3.193l-1.901 2.511-2.511-1.076 0.431-3.121c-1.471-0.287-3.013-0.323-4.52 0l0.431 3.121-1.291 0.502-1.256 0.502-1.901-2.511c-1.291 0.861-2.368 1.937-3.193 3.193l2.511 1.901-0.538 1.291-0.538 1.256-3.121-0.43c-0.287 1.471-0.323 3.013 0 4.52l3.121-0.43 1.004 2.511-2.511 1.901c0.861 1.291 1.937 2.368 3.193 3.193l1.901-2.511 2.511 1.076-0.431 3.121c1.471 0.287 3.013 0.323 4.52 0l-0.431-3.121 2.511-1.004 1.901 2.511c1.291-0.861 2.368-1.937 3.193-3.193l-2.511-1.901 0.538-1.256 0.574-1.291zM11.336 25.291c-2.547 0-4.592-2.045-4.592-4.592s2.045-4.592 4.592-4.592c2.547 0 4.592 2.045 4.592 4.592 0 2.511-2.045 4.592-4.592 4.592z"></path>
<path class="path2" d="M33.901 15.175l1.973-0.108c0-0.933-0.179-1.901-0.538-2.798l-1.865 0.646-0.933-1.435 1.327-1.471c-0.682-0.682-1.471-1.22-2.332-1.578l-0.861 1.758-1.65-0.359-0.108-1.973c-0.933 0-1.901 0.179-2.798 0.538l0.646 1.865-1.435 0.933-1.471-1.327c-0.682 0.682-1.22 1.471-1.578 2.332l1.758 0.861-0.179 0.933-0.179 0.825-1.973 0.108c0 0.933 0.179 1.901 0.538 2.798l1.865-0.646 0.933 1.435-1.327 1.471c0.682 0.682 1.471 1.22 2.332 1.578l0.861-1.758 1.65 0.359 0.108 1.973c0.933 0 1.901-0.179 2.798-0.538l-0.61-1.901 1.435-0.933 1.471 1.327c0.682-0.682 1.22-1.471 1.578-2.332l-1.794-0.897 0.179-0.825 0.179-0.861zM29.345 17.83c-1.543 0.287-3.049-0.718-3.372-2.26-0.287-1.543 0.718-3.049 2.26-3.372 1.543-0.287 3.049 0.717 3.372 2.26s-0.718 3.049-2.26 3.372z"></path>
<path class="path3" d="M22.099 7.247l1.256 0.718c0.359-0.574 0.646-1.22 0.753-1.937l-1.399-0.323v-1.22l1.399-0.395c-0.143-0.682-0.43-1.327-0.825-1.901l-1.291 0.682-0.933-0.861 0.718-1.256c-0.574-0.359-1.22-0.646-1.937-0.753l-0.323 1.399h-1.22l-0.395-1.399c-0.682 0.143-1.327 0.43-1.901 0.825l0.753 1.22-0.861 0.933-1.256-0.717c-0.359 0.574-0.646 1.22-0.753 1.937l1.399 0.323v1.22l-1.399 0.395c0.143 0.682 0.431 1.327 0.825 1.901l1.22-0.753 0.466 0.431 0.466 0.538-0.718 1.256c0.574 0.359 1.22 0.646 1.937 0.753l0.323-1.399h1.22l0.395 1.399c0.682-0.143 1.327-0.431 1.901-0.825l-0.753-1.22 0.43-0.466 0.502-0.502zM18.224 7.103c-1.076-0.431-1.614-1.65-1.22-2.726 0.43-1.076 1.65-1.614 2.726-1.22 1.076 0.43 1.614 1.65 1.22 2.726-0.43 1.076-1.65 1.614-2.726 1.22z"></path>
</symbol>
<symbol id="wreath" viewBox="0 0 15 32">
<path class="path1" d="M7.552 6.88c-0.224 0.032-0.448 0.096-0.64 0.16-1.056 0.352-2.016 1.024-1.888 2.24 1.376 0 2.496-0.448 3.424-1.504 0 0 0.032-0.032 0.032-0.032 0.224-0.288 0.416-0.576 0.544-0.896-0.512-0.032-0.992-0.032-1.472 0.032v0zM6.4 10.048c-1.28 0.48-2.528 1.44-2.144 2.976 1.632-0.256 3.2-1.6 3.616-3.264-0.512 0.032-0.992 0.128-1.472 0.288v0zM5.92 13.408c-0.576 0.352-0.96 0.672-1.344 1.248-0.448 0.736-0.64 1.472-0.256 2.272 1.696-0.704 2.912-2.304 3.008-4.096-0.48 0.128-0.96 0.32-1.408 0.576v0zM6.144 16.864c-1.024 0.992-1.92 2.432-0.96 3.776 1.536-0.928 2.496-2.848 2.272-4.64-0.48 0.224-0.928 0.512-1.312 0.864v0zM7.040 20.064c-0.864 1.152-1.504 2.752-0.256 3.904 1.312-1.184 1.952-3.296 1.408-5.024-0.416 0.352-0.8 0.704-1.152 1.12v0zM8.544 22.944c-0.192 0.384-0.32 0.704-0.448 1.12-0.224 1.152-0.128 2.272 0.96 2.944 0.864-1.248 1.152-2.816 0.832-4.288-0.096-0.384-0.192-0.736-0.384-1.056-0.352 0.352-0.704 0.8-0.96 1.28v0zM10.624 25.504c-0.416 1.504-0.384 3.296 1.28 3.968 0.8-1.664 0.544-4.032-0.608-5.536-0.288 0.512-0.512 1.024-0.672 1.568v0zM9.344 3.968c-1.28 0-2.72 0.416-2.88 1.888 1.248 0.288 2.624-0.032 3.616-0.864 0.256-0.224 0.48-0.48 0.672-0.768-0.48-0.16-0.928-0.256-1.408-0.256v0zM10.336 1.152c-0.512 1.088-1.376 1.952-2.688 1.92-0.352-1.312 0.672-2.432 1.856-2.848 0.384-0.16 0.8-0.224 1.216-0.224-0.096 0.384-0.224 0.768-0.384 1.152v0zM4.032 5.024c0.096 0.224 0.16 0.448 0.224 0.704 0.32 1.12 0.512 2.272-0.288 3.232-1.312-0.96-1.728-2.528-1.216-4.032 0.16-0.48 0.384-0.928 0.672-1.344 0.224 0.48 0.448 0.96 0.608 1.44v0zM2.368 8.864c0.704 1.088 1.504 2.752 0.832 4.064-2.112-0.768-2.592-3.424-1.792-5.344 0.352 0.384 0.672 0.832 0.96 1.28v0zM1.504 13.056c0.48 0.512 0.864 0.96 1.248 1.568 0.448 0.8 0.736 1.504 0.544 2.4-1.44-0.224-2.24-1.088-2.784-2.4-0.32-0.832-0.384-1.824-0.256-2.688 0.416 0.352 0.832 0.736 1.248 1.12v0zM1.504 17.504c1.152 0.736 2.72 1.984 2.688 3.488-1.792 0.192-3.2-1.088-3.808-2.688-0.192-0.512-0.32-1.088-0.352-1.632 0.48 0.224 0.992 0.512 1.472 0.832v0zM2.4 21.728c1.28 0.448 3.136 1.312 3.456 2.816-1.728 0.608-3.424-0.32-4.416-1.76-0.32-0.48-0.576-0.992-0.736-1.536 0.608 0.128 1.152 0.288 1.696 0.48v0zM4.128 25.632c0.448 0.064 0.864 0.128 1.28 0.224 1.184 0.32 2.24 0.736 2.848 1.888-1.696 0.928-3.232 0.48-4.672-0.672 0 0-0.16-0.128-0.192-0.16-0.416-0.384-0.768-0.864-1.056-1.376 0.608 0 1.216 0.032 1.792 0.096v0zM6.656 29.152c1.472-0.128 3.616-0.064 4.64 1.216-1.376 1.376-3.488 1.184-5.056 0.256-0.512-0.32-0.992-0.704-1.408-1.152 0.608-0.16 1.216-0.256 1.824-0.32v0zM6.464 1.568c0.16 1.216 0.192 2.944-0.928 3.744-1.44-1.504-0.864-3.904 0.64-5.248 0.128 0.512 0.224 1.024 0.288 1.504v0z"></path>
<path class="path2" d="M7.648 3.104c-0.832 1.088-1.408 2.080-2.016 3.296-1.28 2.816-1.792 5.12-1.824 8.224 0.128 3.968 1.024 6.848 3.136 10.176 2.208 3.136 4.48 5.024 7.936 6.624-0.064 0.192-0.16 0.352-0.224 0.544-3.552-1.696-5.888-3.648-8.128-6.912-2.144-3.424-3.008-6.4-3.072-10.464 0.096-3.136 0.64-5.472 2.016-8.288 0.672-1.184 1.312-2.144 2.176-3.2v0z"></path>
</symbol>
</defs>
</svg>
