<svg height="0" width="0" xmlns="http://www.w3.org/2000/svg" xmlns:xlink="http://www.w3.org/1999/xlink"><defs><symbol id="arrow-1" viewBox="0 0 15 32"><path d="m12.684.291 1.054-.291c.018.054 1.308 4.943.563 11.03-.672 5.633-3.507 13.229-11.757 18.826-.091.055-.2.055-.291 0s-.127-.164-.127-.254l1.072-2.798-2.471 4.434c.854-.382 2.271-1.563 5.942-3.125l-.091 1.054c-4.525 1.545-6.178 2.817-6.196 2.817-.091.036-.218.018-.291-.055s-.109-.182-.073-.291l3.562-7.287c.036-.127.182-.2.309-.182.127.036.218.164.2.291l-1.363 4.634c7.923-5.233 10.376-12.702 11.03-18.099.727-5.997-1.072-10.667-1.072-10.703z" fill="#fff"/></symbol><symbol id="arrow-2" viewBox="0 0 21 32"><path d="m1.442 32c-.105 0-.211-.053-.299-.141-.105-.123-.123-.299-.035-.44.035-.053 3.27-3.886 5.556-11.358.651-2.163.844-2.092 1.213-1.952.387.141.387.141-.369 2.233-.369 1.037-.879 2.444-1.389 3.833-.598 1.635-1.213 3.27-1.6 4.343 18.251-12.694 16.229-16.141 16.035-16.475-.352-.615-1.952-.738-4.765.387-1.248.51-12.308 4.87-13.802 2.444-.615-.985.527-2.497 3.253-5.116 4.097-3.938 4.73-6.154 4.325-6.963-.791-1.565-4.448-1.846-9.565-.738 1.407-1.213 3.165-1.934 5.029-2.04 3.182-.158 4.448.932 5.222 2.444.897 1.776-.932 4.114-4.818 7.56-3.393 3.024-2.919 4.255-2.796 4.466.668 1.073 6.435-.158 12.87-2.76 2.971-1.196 5.046-1.213 5.714-.053 1.389 2.497-4.202 8.879-16.738 18.145-.141.105-.862.176-.985.088-.141-.105-.193-.281-.123-.44.193-.51.387-1.055.598-1.618-.686 1.336-1.266 2.374-1.653 3.059 1.758-.598 5.486-1.758 9.002-1.952l.035.756c-5.345 0-9.723 2.251-9.776 2.268s-.088.018-.141.018z" fill="#44b1e4"/></symbol><symbol id="groups" viewBox="0 0 43 32"><path d="m32.352 0c3.072 0 5.536 2.464 5.536 5.536s-2.464 5.536-5.536 5.536c-3.04 0-5.536-2.464-5.536-5.536s2.464-5.536 5.536-5.536zm-10.912 6.752c3.072 0 5.536 2.464 5.536 5.536 0 3.04-2.464 5.536-5.536 5.536s-5.536-2.464-5.536-5.536 2.496-5.536 5.536-5.536zm-10.88-6.752c3.04 0 5.536 2.464 5.536 5.536s-2.464 5.536-5.536 5.536-5.536-2.464-5.536-5.536 2.464-5.536 5.536-5.536zm-6.208 24.48-.736-4.416v4.224c-1.44-.448-2.688-1.024-3.616-1.728v-3.328c0-3.52 1.216-6.784 7.872-7.456.8.416 1.728.64 2.688.64s1.888-.224 2.688-.64c.416.032.8.096 1.184.16v.352c0 1.984.832 3.776 2.176 5.056-4.576.96-6.912 3.552-7.168 7.872-1.856-.064-3.552-.32-5.088-.736zm27.392 5.024c-.896.608-2.048 1.12-3.392 1.536v-4.224l-.736 4.448c-1.824.48-3.936.768-6.176.768-2.272 0-4.384-.288-6.208-.768l-.736-4.416v4.192c-1.472-.448-2.688-1.024-3.616-1.728v-3.328c0-3.52 1.216-6.784 7.872-7.456.8.416 1.728.64 2.688.64s1.888-.224 2.688-.64c6.752.672 7.616 3.936 7.616 7.456zm11.168-6.944c-.928.672-2.176 1.28-3.616 1.728v-4.224l-.736 4.416c-1.6.416-3.392.672-5.312.736-.128-3.232-1.248-6.72-6.912-7.904 1.312-1.28 2.144-3.072 2.144-5.056 0-.128 0-.256 0-.352.384-.064.768-.096 1.184-.16.8.416 1.728.64 2.688.64s1.888-.224 2.688-.64c6.656.672 7.872 3.936 7.872 7.456z"/></symbol><symbol id="meetings" viewBox="0 0 35 32"><path d="m .672 14.08h4.608c.352 0 .672-.288.672-.64s-.288-.64-.672-.64h-4.608c-.384 0-.672.288-.672.64s.288.64.672.64z"/><path d="m .672 19.2h4.608c.352 0 .672-.288.672-.64s-.288-.64-.672-.64h-4.608c-.384 0-.672.288-.672.64s.288.64.672.64z"/><path d="m .672 4.48h4.608c.352 0 .672-.448.672-.8s-.352-.8-.704-.8h-4.576c-.384 0-.672.448-.672.8s.288.8.672.8z"/><path d="m .672 9.28h4.608c.352 0 .672-.288.672-.64s-.288-.64-.672-.64h-4.608c-.384 0-.672.288-.672.64s.288.64.672.64z"/><path d="m20 31.008v-3.52c0-2.656 1.792-4.352 3.072-5.632.288-.288.736-.704.96-.96-.192-.256-.64-.672-.96-.96-1.28-1.248-3.072-2.976-3.072-5.632v-3.52c0-1.44 1.312-2.464 2.784-2.464h5.216v-7.104c0-.736-.576-1.216-1.312-1.216h-21.984c-.736 0-1.344.48-1.344 1.216v1.344h1.632c.192 0 .448-.224.736-.224.672 0 1.216.576 1.216 1.248s-.544 1.344-1.216 1.344c-.288 0-.544-.128-.736-.128h-1.632v2.88h1.632c.192-.32.448-.32.736-.32.672 0 1.216.512 1.216 1.184s-.544 1.248-1.216 1.248c-.288 0-.544-.224-.736-.224h-1.632v2.88h1.632c.192 0 .448-.256.736-.256.672 0 1.216.544 1.216 1.216s-.544 1.216-1.216 1.216c-.288 0-.544.064-.736-.256h-1.632v3.2h1.632c.192-.32.448-.352.736-.352.672 0 1.216.512 1.216 1.184s-.544 1.28-1.216 1.28c-.288 0-.544-.192-.736-.192h-1.632v2.88h1.632c.192-.32.448-.288.736-.288.672 0 1.216.512 1.216 1.216s-.544 1.248-1.216 1.248c-.288 0-.544.096-.736-.224h-1.632v2.88h1.632c.192 0 .448-.224.736-.224.672 0 1.216.544 1.216 1.248s-.544 1.344-1.216 1.344c-.288 0-.544-.128-.736-.128h-1.632v1.152c0 .736.64 1.408 1.344 1.408h15.488c-.096-.32-.192-.672-.192-.992z"/><path d="m .672 24h4.608c.352 0 .672-.288.672-.64s-.288-.64-.672-.64h-4.608c-.384 0-.672.288-.672.64s.288.64.672.64z"/><path d="m5.92 28.32c0-.352-.288-.8-.672-.8h-4.576c-.384 0-.672.448-.672.8s.288.8.672.8h4.608c.32 0 .64-.448.64-.8z"/><path d="m35.072 14.304c0-3.296 0-3.52 0-3.52 0-.48-.384-.896-.896-.896h-11.392c-.48 0-.896.384-.896.896v3.552s4.032 4.864 4.032 6.592-4.032 3.296-4.032 6.592v3.52c0 .48.384.896.896.896h11.424c.48 0 .896-.384.896-.896 0 0 0-.256 0-3.52s-4-4.672-4-6.592 3.968-3.296 3.968-6.624zm-10.592 1.92c-.512-.64-.832-1.216-.832-1.888v-2.208h9.664v2.208c0 .704-.32 1.28-.864 1.92h-7.968zm6.976 8.352c1.12 1.12 1.888 1.92 1.888 2.944v2.208h-.512l-3.072-2.944c-.192-.192-.448-.352-.704-.416v-.864h-1.088v.864c-.256.096-.512.224-.704.416l-3.04 2.912h-.512v-2.176c0-1.184.992-2.144 1.984-3.104.992-.992 2.048-2.016 2.048-3.456 0-.032 0-.032 0-.064.096.032.16.064.256.096v.768h1.088v-.8c.096-.032.192-.064.288-.096v.064c-.064 1.568 1.056 2.656 2.08 3.648z"/><path d="m27.936 23.968h1.088v.896h-1.088z"/><path d="m27.936 22.432h1.088v.896h-1.088z"/></symbol><symbol id="phone" viewBox="0 0 32 32"><path d="m16 0c-8.8 0-16 7.2-16 16s7.2 16 16 16 16-7.2 16-16-7.2-16-16-16zm4.2 25.7c-1.4-.1-10.2-2.2-14-12.8-.7-2.2.2-5.7 2.8-6.5s3.9 2.8 4.3 5l-2.3 2.2s-.1 1.4 3 4.5 4.5 3 4.5 3l2.6-2.6c1.6.3 4.9 2.4 4.9 2.4-.4 3.1-2.5 5.2-5.8 4.8z" fill="#f29b11"/></symbol><symbol id="system" viewBox="0 0 21 32"><path d="m5.44 11.936h8.16v.96h-8.16z"/><path d="m11.68 14.816 1.12.544.16.064h.64v-.928h-8.16v.928h6.176z"/><path d="m11.456 17.312.032-.288h-6.048v.96h3.776l-.224-.48 1.248-.096z"/><path d="m5.44 9.408h8.16v.96h-8.16z"/><path d="m1.6 1.6h10.976v5.088h4.928v8.864l.416-.192 1.12-.544.064-8.96-5.728-5.856h-13.376v24.832h8.96l.544-1.12.224-.448h-8.128v-21.664zm11.904.832 3.2 3.296h-3.2z"/><path d="m13.856 26.336-1.184.576-1.152 2.784 2.752 2.304.864-3.84-.48-.672z"/><path d="m16.896 26.336-.8 1.152-.448.672.864 3.84 2.752-2.304-1.152-2.784z"/><path d="m21.152 21.184-1.632-1.12.864-1.792-1.312-.096-.672-.064-.16-1.984-.768.352-1.024.48-1.12-1.6-1.12 1.632-1.792-.864-.064.896-.064.96v.128l-1.984.16.832 1.792-1.632 1.12 1.632 1.12-.448.96-.384.832 1.984.16.032.608.096 1.376.736-.352 1.056-.512 1.12 1.632.224-.32.896-1.312 1.792.864.128-1.376.064-.576.672-.064 1.312-.096-.896-1.824zm-8.736.32c-.192-1.632.992-3.072 2.592-3.264.128 0 .224-.032.32-.032.832 0 1.6.352 2.144.928.416.448.704 1.024.768 1.696.096.896-.224 1.728-.768 2.336-.032.032-.032.032-.064.064-.448.448-1.056.768-1.76.864-.128 0-.224.032-.32.032-.8 0-1.536-.32-2.08-.864-.448-.448-.768-1.056-.832-1.76z"/></symbol><symbol id="techniques" viewBox="0 0 27 32"><path d="m13.547 0c-6.933 0-11.52 5.227-11.52 12.16 0 .356.213.427.249 1.28.036.818-1.92 4.836-2.169 5.511-.249.604-.107 1.671.818 1.671 1.138-.036 1.244.711.711 1.102-.284.178 0 .996.178 1.102s1.209.462 1.28.533-.391.356-.533.569c-.142.249.178 1.031.178 1.031s.32.213.924.569c.676.462.071 1.92.071 2.347s.569 1.884 2.062 1.884 3.982-.96 3.982-.96l.676 3.2c.498-.178 8.853-2.809 10.951-3.449.249-.071.462-.142.711-.213l-.569-4.338c1.458-2.418 4.978-6.222 5.333-9.92 1.28-9.422-5.333-14.08-13.333-14.08zm7.146 6.4c-.036 0-.036 0-.071 0s-.036 0-.071 0c-.071-.249-.142-.604-.142-.96 0-.32.071-.569.142-.747.071-.107.107-.178.213-.213.107-.071.213-.107.356-.142.036 0 .284.071.391.107.924.498 1.636 1.173 2.062 2.027.036.036.036.107 0 .178-.036.107-.178.284-.604.462-.284.107-.569.356-.818.747-.284.427-.569.747-.853.924-.249.142-.462.249-.676.249-.178 0-.32-.036-.498-.142-.071-.036-.213-.178-.284-.32-.107-.178-.142-.391-.142-.569s.071-.462.213-.604c.391-.391.747-.462.924-.533.142-.036.284-.071.249-.213s-.178-.249-.391-.249zm-3.2-3.484c.071-.036.178 0 .249 0 .676 0 1.316.249 1.92.782 0 0 .356.284.142.924-.071.284-.142.569-.142.853 0 .32.036.711.142 1.102v.071c-.711.249-.996.96-1.102 1.28-.036.071-.036.107-.071.142-.071.142-.142.213-.213.284s-.178.107-.32.107c-.178 0-.32.036-.498.071.036-.071.107-.178.142-.249.178-.356.284-.711.284-1.067 0-.213-.036-.427-.107-.604.036 0 .107.036.142.036s.071.036.107.036c.178 0 .32-.107.356-.249.036-.107.036-.178 0-.284s-.107-.178-.213-.213c-2.24-.462-2.027-2.596-.818-3.022zm-5.76 3.484h.071s.036 0 .071 0c .107 0 .391.036 1.529.853.071.036.107.071.178.071.142 0 .249-.071.32-.178.036-.071.071-.178.036-.284s-.107-.178-.178-.249c-.711-.391-1.564-.889-1.849-1.422-1.138-2.062.711-2.738.711-2.738.569-.142 1.102-.213 1.6-.213.96 0 1.707.284 1.991.711.32 1.636-1.422 1.707-1.422 1.102.071-.142.036-.32-.071-.427-.071-.071-.142-.107-.249-.107s-.213.036-.284.107c-.071.036-.107.107-.142.178s-.036.142-.036.213c0 .107.036.178.071.284.071.142.142.249.284.391.178.178.427.391.747.604s.711.427 1.138.604c.356.178.604.356.782.604.178.213.249.427.249.711 0 .213-.071.462-.213.747s-.356.569-.676.889c-.213.213-.427.356-.711.462-.213.071-.498.142-.747.142-.498 0-.924-.142-1.244-.249-.178-.071-.32-.107-.391-.178-.036-.036-.142-.071-.142-.071-.036-.036-.107-.036-.178-.036-.036 0-.107 0-.142.036-.107.036-.213.142-.213.249-.071.249-.142.462-.249.64-.142.213-.32.356-.569.462-.213.071-.462.142-.747.142-.356 0-.676-.071-.924-.142-.107-.036-.213-.071-.284-.071l-.071-.036c-.178-.107-.32-.249-.391-.391s-.107-.249-.107-.391c0-.249.107-.498.32-.676.213-.213.533-.32.676-.356.107-.036.213-.036.284-.071h.071c.142 0 .213-.071.284-.142s.107-.178.071-.249c0-.213-.178-.356-.391-.356-.036 0-.178 0-.391.036 0-.249.036-.498.142-.676.107-.213.249-.356.462-.462s.462-.107.604-.107c.178 0 .284.036.32.036zm1.849 3.378c-.071.036-.142.071-.249.107-.071.036-.178.071-.249.107.071-.107.107-.213.142-.356.071.071.178.107.356.142-.036 0-.036 0 0 0zm-7.431-.64c-.284-.32-.604-.782-.604-1.316 0-.391.213-.782.604-1.138.142-.071.462-.178.924-.178s.96.107 1.493.284c.036 0 .071.036.142.036.142 0 .284-.107.356-.249.036-.107.036-.178 0-.284s-.107-.178-.213-.213c-.64-.213-1.244-.356-1.778-.356-.142 0-.284 0-.427.036-.036-.32 0-.747.284-1.102s.782-.569 1.458-.604h.036l.036-.036s.604-.853 1.884-.853h.32c.178.178.533.533.213 1.316-.071.142-.178.284-.391.427s-.462.213-.711.213c-.213 0-.427-.036-.533-.071-.071-.036-.142-.036-.178-.071h-.036c-.071-.036-.142-.036-.178-.036-.142 0-.284.071-.32.178-.036.071-.071.178-.036.284s.107.178.178.213c.178.071.569.249 1.102.249.32 0 .747-.071 1.173-.391.036 0 .036-.036.071-.036.071 0 .107.036.107.071s-.036.071-.178.142c-.32.107-.676.249-.96.569-.284.356-.427.818-.427 1.387v.213c-.178.107-.32.213-.462.32-.32.32-.498.711-.533 1.138-.569-.284-1.067-.427-1.529-.427-.284 0-.533.036-.782.142-.071.107-.107.142-.107.142zm3.165 2.56c-.711 0-2.027-.249-2.667-1.707-.036-.071-.036-.142 0-.178.071-.107.249-.142.356-.142.427 0 .96.178 1.564.533.036 0 .107.071.213.142.178.142.462.356.64.462l.036.036s.213.071.498.178c.249.071.533.107.924.142-.462.036-.818.142-1.067.391-.071.107-.356.142-.498.142zm7.644 6.151-1.956-2.062c.142-.036.249-.036.391-.071.391-.107.711-.249.996-.462.178.249.462.604.818 1.031.284.32.604.711.604.711 0 .036.284.498.498.889h-1.351zm4.836-3.2c-.213.427-2.169 1.351-2.169 1.351s-2.027-.391-2.169-.533c-.32-.391-.356-.64-.356-.782s.071-.178.107-.213c.32-.249.676-.498 1.031-.676.462-.249 1.173-.533 1.884-.533.284 0 .569.036.782.142.178.071.32.178.462.32.107.107.213.178.32.213s.284.391.107.711zm3.057-4.836c0 .107-.071.142-.178.142-.071 0-.142-.036-.249-.071-.64-.249-1.209-.391-1.707-.391-.356 0-.676.071-.924.213-.32.142-.533.427-.711.747-.178.356-.249.64-.249.889 0 .178.036.32.107.462.036.107.107.178.213.249s.249.142.391.178c.107.036.213.036.356.036s.284 0 .391-.036.213-.107.249-.178.071-.178.036-.284c-.036-.178-.213-.284-.356-.284-.036 0-.071 0-.107 0 0 0-.107.036-.213.036-.036 0-.107 0-.142 0-.071 0-.107-.036-.107-.036-.036-.036-.036-.071-.036-.107 0-.071 0-.249.178-.604.071-.178.213-.284.356-.391.142-.071.32-.107.569-.107.569 0 1.351.213 1.671.853 0 .036.462 1.422-.711 2.133-.107.071-.391.178-.64.178-.071 0-.142 0-.178-.036-.071-.036-.107-.036-.178-.071-.142-.036-.284-.107-.462-.178l-.071-.036c-.249-.107-.533-.249-.96-.427-.32-.142-.711-.213-1.067-.213-.711 0-1.493.213-2.276.64h-.036c-.071 0-.213-.036-.32-.178-.071-.107-.107-.213-.107-.391.498-.036.924-.107 1.28-.249s.604-.32.818-.533c.249-.284.356-.64.356-1.031 0-.213-.178-.356-.391-.356s-.391.178-.391.356c0 .213-.071.391-.178.533-.142.178-.462.32-.853.427-.178.036-.356.071-.533.071-.533 0-.996-.178-1.28-.32-.071-.036-.142-.071-.213-.071-.036 0-.071-.036-.142-.036-.142 0-.32.107-.356.249-.036.107-.036.178 0 .284s.107.178.213.213c.391.142.676.32.853.498.142.142.178.32.178.498 0 .249-.107.533-.32.853-.107.142-.178.249-.213.284s-.071.071-.071.071l-.036.036c-.284.32-.64.498-.996.569-.213.036-.427.071-.604.071-.604 0-1.067-.178-1.422-.32l-.178-.071-.036.036s-.178.107-.533.107c-.427 0-.924-.107-1.458-.356-.427-.178-.711-.533-.889-1.031-.107-.284-.107-1.067.249-1.209.036-.036.107-.036.142-.071.178-.107.391-.178.64-.178h.071c.569.036.924.249 1.173.427.036.036.107.071.142.107.533.32 1.067.498 1.636.498.178 0 .356 0 .533-.036.107-.036.178-.071.249-.178.036-.071.071-.178.036-.284-.036-.178-.178-.284-.391-.284-.036 0-.036 0-.071 0-.142.036-.249.036-.391.036-.533 0-.96-.213-1.244-.356-.036-.036-.32-.213-.32-.427 0-.142.071-.284.249-.427.249-.213.533-.356.853-.462.32-.142.604-.213.818-.213h.142c.462.071.64.107.747.142.036 0 .107.036.107.036.036 0 .071.036.107.036s.071 0 .107 0 .142 0 .284-.036h.107c.107 0 .249-.071.356-.107.178-.107.32-.213.498-.356.071-.071.142-.107.178-.178.142-.142.32-.284.462-.391.107-.071.213-.142.32-.178s.213-.071.284-.071c.32 0 .604-.107.818-.284.036-.036.071-.071.107-.107.036.071.036.107.071.178.178.284.356.498.604.64.284.142.569.213.853.213.391 0 .782-.142 1.138-.356.391-.249.747-.64 1.067-1.138.178-.284.356-.427.498-.498.107-.036.213-.036.32-.036.427 0 .676.32.818.604.249.284.533.818.498 1.422z"/></symbol><symbol id="tools" viewBox="0 0 36 32"><path d="m19.3 22.529 3.121.43c.287-1.471.323-3.013 0-4.52l-3.121.43-1.004-2.511 2.511-1.901c-.861-1.291-1.937-2.368-3.193-3.193l-1.901 2.511-2.511-1.076.431-3.121c-1.471-.287-3.013-.323-4.52 0l .431 3.121-1.291.502-1.256.502-1.901-2.511c-1.291.861-2.368 1.937-3.193 3.193l2.511 1.901-.538 1.291-.538 1.256-3.121-.43c-.287 1.471-.323 3.013 0 4.52l3.121-.43 1.004 2.511-2.511 1.901c.861 1.291 1.937 2.368 3.193 3.193l1.901-2.511 2.511 1.076-.431 3.121c1.471.287 3.013.323 4.52 0l-.431-3.121 2.511-1.004 1.901 2.511c1.291-.861 2.368-1.937 3.193-3.193l-2.511-1.901.538-1.256zm-7.964 2.762c-2.547 0-4.592-2.045-4.592-4.592s2.045-4.592 4.592-4.592 4.592 2.045 4.592 4.592c0 2.511-2.045 4.592-4.592 4.592z"/><path d="m33.901 15.175 1.973-.108c0-.933-.179-1.901-.538-2.798l-1.865.646-.933-1.435 1.327-1.471c-.682-.682-1.471-1.22-2.332-1.578l-.861 1.758-1.65-.359-.108-1.973c-.933 0-1.901.179-2.798.538l.646 1.865-1.435.933-1.471-1.327c-.682.682-1.22 1.471-1.578 2.332l1.758.861-.179.933-.179.825-1.973.108c0 .933.179 1.901.538 2.798l1.865-.646.933 1.435-1.327 1.471c.682.682 1.471 1.22 2.332 1.578l.861-1.758 1.65.359.108 1.973c.933 0 1.901-.179 2.798-.538l-.61-1.901 1.435-.933 1.471 1.327c.682-.682 1.22-1.471 1.578-2.332l-1.794-.897.179-.825zm-4.556 2.655c-1.543.287-3.049-.718-3.372-2.26-.287-1.543.718-3.049 2.26-3.372 1.543-.287 3.049.717 3.372 2.26s-.718 3.049-2.26 3.372z"/><path d="m22.099 7.247 1.256.718c.359-.574.646-1.22.753-1.937l-1.399-.323v-1.22l1.399-.395c-.143-.682-.43-1.327-.825-1.901l-1.291.682-.933-.861.718-1.256c-.574-.359-1.22-.646-1.937-.753l-.323 1.399h-1.22l-.395-1.399c-.682.143-1.327.43-1.901.825l.753 1.22-.861.933-1.256-.717c-.359.574-.646 1.22-.753 1.937l1.399.323v1.22l-1.399.395c.143.682.431 1.327.825 1.901l1.22-.753.466.431.466.538-.718 1.256c.574.359 1.22.646 1.937.753l.323-1.399h1.22l.395 1.399c.682-.143 1.327-.431 1.901-.825l-.753-1.22.43-.466.502-.502zm-3.875-.144c-1.076-.431-1.614-1.65-1.22-2.726.43-1.076 1.65-1.614 2.726-1.22 1.076.43 1.614 1.65 1.22 2.726-.43 1.076-1.65 1.614-2.726 1.22z"/></symbol><symbol id="wreath" viewBox="0 0 15 32"><path d="m7.552 6.88c-.224.032-.448.096-.64.16-1.056.352-2.016 1.024-1.888 2.24 1.376 0 2.496-.448 3.424-1.504 0 0 .032-.032.032-.032.224-.288.416-.576.544-.896-.512-.032-.992-.032-1.472.032zm-1.152 3.168c-1.28.48-2.528 1.44-2.144 2.976 1.632-.256 3.2-1.6 3.616-3.264-.512.032-.992.128-1.472.288zm-.48 3.36c-.576.352-.96.672-1.344 1.248-.448.736-.64 1.472-.256 2.272 1.696-.704 2.912-2.304 3.008-4.096-.48.128-.96.32-1.408.576zm.224 3.456c-1.024.992-1.92 2.432-.96 3.776 1.536-.928 2.496-2.848 2.272-4.64-.48.224-.928.512-1.312.864zm.896 3.2c-.864 1.152-1.504 2.752-.256 3.904 1.312-1.184 1.952-3.296 1.408-5.024-.416.352-.8.704-1.152 1.12zm1.504 2.88c-.192.384-.32.704-.448 1.12-.224 1.152-.128 2.272.96 2.944.864-1.248 1.152-2.816.832-4.288-.096-.384-.192-.736-.384-1.056-.352.352-.704.8-.96 1.28zm2.08 2.56c-.416 1.504-.384 3.296 1.28 3.968.8-1.664.544-4.032-.608-5.536-.288.512-.512 1.024-.672 1.568zm-1.28-21.536c-1.28 0-2.72.416-2.88 1.888 1.248.288 2.624-.032 3.616-.864.256-.224.48-.48.672-.768-.48-.16-.928-.256-1.408-.256zm.992-2.816c-.512 1.088-1.376 1.952-2.688 1.92-.352-1.312.672-2.432 1.856-2.848.384-.16.8-.224 1.216-.224-.096.384-.224.768-.384 1.152zm-6.304 3.872c.096.224.16.448.224.704.32 1.12.512 2.272-.288 3.232-1.312-.96-1.728-2.528-1.216-4.032.16-.48.384-.928.672-1.344.224.48.448.96.608 1.44zm-1.664 3.84c.704 1.088 1.504 2.752.832 4.064-2.112-.768-2.592-3.424-1.792-5.344.352.384.672.832.96 1.28zm-.864 4.192c.48.512.864.96 1.248 1.568.448.8.736 1.504.544 2.4-1.44-.224-2.24-1.088-2.784-2.4-.32-.832-.384-1.824-.256-2.688.416.352.832.736 1.248 1.12zm0 4.448c1.152.736 2.72 1.984 2.688 3.488-1.792.192-3.2-1.088-3.808-2.688-.192-.512-.32-1.088-.352-1.632.48.224.992.512 1.472.832zm.896 4.224c1.28.448 3.136 1.312 3.456 2.816-1.728.608-3.424-.32-4.416-1.76-.32-.48-.576-.992-.736-1.536.608.128 1.152.288 1.696.48zm1.728 3.904c.448.064.864.128 1.28.224 1.184.32 2.24.736 2.848 1.888-1.696.928-3.232.48-4.672-.672 0 0-.16-.128-.192-.16-.416-.384-.768-.864-1.056-1.376.608 0 1.216.032 1.792.096zm2.528 3.52c1.472-.128 3.616-.064 4.64 1.216-1.376 1.376-3.488 1.184-5.056.256-.512-.32-.992-.704-1.408-1.152.608-.16 1.216-.256 1.824-.32zm-.192-27.584c.16 1.216.192 2.944-.928 3.744-1.44-1.504-.864-3.904.64-5.248.128.512.224 1.024.288 1.504z"/><path d="m7.648 3.104c-.832 1.088-1.408 2.08-2.016 3.296-1.28 2.816-1.792 5.12-1.824 8.224.128 3.968 1.024 6.848 3.136 10.176 2.208 3.136 4.48 5.024 7.936 6.624-.064.192-.16.352-.224.544-3.552-1.696-5.888-3.648-8.128-6.912-2.144-3.424-3.008-6.4-3.072-10.464.096-3.136.64-5.472 2.016-8.288.672-1.184 1.312-2.144 2.176-3.2z"/></symbol></defs></svg>